<?xml version="1.0" encoding="utf-8"?>
<!-- Generator: Adobe Illustrator 19.0.0, SVG Export Plug-In . SVG Version: 6.00 Build 0)  -->
<svg version="1.1" id="Слой_1" xmlns="http://www.w3.org/2000/svg" xmlns:xlink="http://www.w3.org/1999/xlink" x="0px" y="0px"
	 viewBox="-1343.5 1366.1 52 78.5" style="enable-background:new -1343.5 1366.1 52 78.5;" xml:space="preserve">
<path d="M-1305.7,1395.5l3.1-3c0.2-0.2,0.3-0.4,0.3-0.6l0,0c0.1-0.6,0.1-1.1,0.1-1.7c0-7.4-5.3-13.6-12.3-15v-9c0-0.7-1-0.7-1,0v8.9
	c-0.6-0.1-1.3-0.1-1.9-0.1c-8.4,0-15.3,6.8-15.3,15.3c0,0.5,0,1,0.1,1.6l0,0c0,0.2,0.1,0.5,0.3,0.7l3.4,3
	c-8.8,4.3-14.5,13.4-14.5,23.3c0,14.3,11.7,26,26,26c14.3,0,26-11.7,26-26C-1291.5,1408.8-1297.1,1399.9-1305.7,1395.5z
	 M-1293.5,1419.8l-0.5-0.9c-0.2-0.4-0.8-0.3-0.9,0.1l-0.9,3.2c-1.7-3.1-2.6-7.1-3-9.3l2,0.2c0.3,0,0.6-0.3,0.5-0.5l-0.2-2.2
	c0-0.2-0.1-0.3-0.2-0.4l-2.7-1.6c-0.1-2.7,0.2-4.2,0.6-4.8c3.4,4.2,5.3,9.5,5.3,15.1C-1293.5,1419-1293.5,1419.4-1293.5,1419.8z
	 M-1299.5,1402.8c-1,1.2-1,4.1-0.9,5.9c0,0.2,0.1,0.3,0.2,0.4l2.7,1.6l0.1,1.3l-2-0.2c-0.3,0-0.6,0.2-0.5,0.6
	c0.3,2,1.6,8.1,3.8,11.3c0.2,0.3,0.8,0.3,0.9-0.1l0.9-3.1l0.2,0.3l-0.9,3.7c0,0.2,0,0.4,0.2,0.5c0.1,0.1,0.3,0.1,0.4,0.2
	c-0.3,1.1-0.7,2.2-1.2,3.2c-1.7,0-4.8-5.1-6.5-13.1c-1.6-7.4-1.1-13.8,0.5-14.6C-1300.8,1401.4-1300.2,1402.1-1299.5,1402.8
	L-1299.5,1402.8z M-1323.4,1415.4c5,0,11,2.5,14,8.1c1.7,3.1,1.9,6.5,0.8,9.5c-1.7,4.4-6.3,7.3-11.8,7.3c-4.8,0-11-2.5-14-8.1
	C-1338.8,1424-1333.1,1415.4-1323.4,1415.4z M-1308.5,1423c-3.3-6.2-10.2-8.6-14.9-8.6c-0.8,0-1.5,0.1-2.3,0.2
	c-0.4-2.5-0.7-5.1-0.7-7.6c8-1.8,16.6-6.8,16.3-10.8h0.9c2.5,0.9,4.8,2.3,6.8,3.9c-1.2,0.9-2.9,5.2-0.7,15.5
	c0.4,1.9,0.9,3.7,1.5,5.4c-2,1.3-4.1,2.5-6.3,3.5C-1308,1424-1308.3,1423.5-1308.5,1423z M-1306,1390.7l-0.5,0v-1.5h0.5
	C-1306,1389.2-1306,1390.7-1306,1390.7z M-1317.5,1376.9c7.3,0,13.3,6,13.3,13.3c0,0.2,0,0.4,0,0.6l-0.8,0v-2.5h-2.5v2.5l-15.4-0.1
	v-3h-1.3v3l-0.3,0v-3h-5.2v3l-0.9,0c0-0.2,0-0.3,0-0.5C-1330.8,1382.8-1324.8,1376.9-1317.5,1376.9z M-1325.7,1390.6l-3.2,0v-2h3.2
	V1390.6z M-1305.8,1392.7l-1.5,1.4h-20l-1.8-1.5L-1305.8,1392.7z M-1323.1,1398.9l2,2c-2.5,1.2-7,2.6-10.5,2.3l1.8-2.4
	c0.2-0.3,0.1-0.7-0.2-0.8l-1.1-0.4c-0.2-0.1-0.4,0-0.5,0.1l-2.5,2.5c-0.3-0.3-0.2-0.6-0.1-0.9c2.3-2.3,5.1-4.1,8.3-5.3h10.3
	c0,0.7-0.7,1.7-2,2.7l-3-1.6c-0.1-0.1-0.3-0.1-0.5,0l-2,1C-1323.3,1398.3-1323.3,1398.7-1323.1,1398.9z M-1335.1,1402.4
	c0.1,0.4,0.4,0.7,0.8,1c0.2,0.1,0.5,0.1,0.7,0l2.6-2.6l0.2,0.1l-1.9,2.5c-0.2,0.3-0.1,0.7,0.3,0.8c3.6,0.7,9.2-0.9,12.6-2.6
	c0.3-0.1,0.4-0.5,0.1-0.8l-2-2l1.1-0.6l3,1.7c0.2,0.1,0.4,0.1,0.5,0c1.7-1.3,2.6-2.5,2.6-3.7h3.5c0.2,2.6-4.9,6.4-11.8,8.8
	c-7.1,2.4-13,2.2-14.6,0.4C-1336.7,1404.3-1336,1403.3-1335.1,1402.4z M-1338,1406.2c2.1,2,7.2,1.6,10.6,1c0.1,2.5,0.3,5.1,0.7,7.6
	c-7.3,1.5-11.6,7.9-9.9,14.8c-1-0.3-1.9-0.6-2.8-1c-1.4-3-2.1-6.4-2.1-9.9C-1341.5,1414.2-1340.2,1409.9-1338,1406.2z
	 M-1317.5,1442.6c-9.2,0-17.2-5.2-21.2-12.8c0.8,0.3,1.7,0.6,2.5,0.8c0.2,0.7,0.5,1.3,0.9,2c3.1,5.7,9.4,8.6,14.9,8.6h0
	c5.9,0,10.9-3.1,12.7-7.9c1-2.5,1-5.3,0.2-8c2.2-1,4.3-2.2,6.3-3.5c1.5,3.9,3.3,7,5.2,7.4C-1300,1437.2-1308.1,1442.6-1317.5,1442.6
	z"/>
<path d="M-1317.5,1387c2.6,0,4.8-2.2,4.8-4.8c0-2.6-2.2-4.8-4.8-4.8s-4.8,2.2-4.8,4.8C-1322.3,1384.9-1320.1,1387-1317.5,1387z
	 M-1317.5,1379.4c1.5,0,2.8,1.3,2.8,2.8c0,1.5-1.3,2.8-2.8,2.8c-1.5,0-2.8-1.3-2.8-2.8C-1320.3,1380.7-1319,1379.4-1317.5,1379.4z"
	/>
<circle cx="-1310.8" cy="1386.3" r="1.8"/>
<path d="M-1333.8,1429.5l4.4,0.8l0.2,1.3l-3.4,0.5c-0.2,0-0.6,0.3-0.4,0.7c2.5,4.4,7.7,6.8,12.4,6.3c0.2,0,0.5-0.3,0.4-0.6l-0.8-2.6
	l1.3-0.2l1.9,2.4c0.1,0.2,0.4,0.2,0.6,0.1c4.1-1.7,6.3-5.6,5.6-9.8c-0.1-0.3-0.3-0.5-0.6-0.4l-3.3,0.6l-0.4-1.1l3.1-1.4
	c0.2-0.1,0.4-0.4,0.2-0.7c-2.7-5.2-8.1-6.8-11.5-6.8h0c-0.4,0-0.5,0.3-0.5,0.5l0.3,3.7l-1.1,0.2l-1.4-3.6c-0.1-0.2-0.4-0.4-0.6-0.3
	c-5.5,1.6-7.3,6.4-6.8,10C-1334.2,1429.3-1334,1429.4-1333.8,1429.5z M-1327.6,1420.2l1.4,3.6c0.1,0.2,0.3,0.4,0.6,0.3l2-0.4
	c0.3,0,0.4-0.3,0.4-0.5l-0.3-3.6c3.1,0.1,7.5,1.7,9.8,5.8l-3,1.4c-0.2,0.1-0.4,0.4-0.3,0.6l0.8,1.9c0.1,0.2,0.3,0.3,0.6,0.3l3.1-0.6
	c0.3,3.1-1.1,6.4-4.7,8.1l-1.9-2.3c-0.1-0.1-0.3-0.2-0.5-0.2l-2.2,0.3c-0.4,0.1-0.5,0.4-0.4,0.6l0.8,2.5c-3.8,0.2-8-1.6-10.4-5.2
	l3.2-0.4c0.3,0,0.5-0.3,0.4-0.6l-0.4-2.1c0-0.2-0.2-0.4-0.4-0.4l-4.3-0.8C-1333.6,1425.1-1331.8,1421.6-1327.6,1420.2z"/>
<circle cx="-1319.4" cy="1409.2" r="0.9"/>
<circle cx="-1308.1" cy="1402.7" r="0.9"/>
<circle cx="-1306.8" cy="1416.7" r="0.9"/>
<circle cx="-1302.7" cy="1429.5" r="0.9"/>
<circle cx="-1308.1" cy="1439.5" r="0.9"/>
<circle cx="-1332.9" cy="1412.4" r="0.9"/>
<circle cx="-1339.2" cy="1423.2" r="0.9"/>
</svg>
