<svg xmlns="http://www.w3.org/2000/svg" xmlns:xlink="http://www.w3.org/1999/xlink" version="1.1" x="0px" y="0px" viewBox="0 0 100 125" enable-background="new 0 0 100 100" xml:space="preserve"><g><path d="M60.537,60.135c4.099,0,7.434-3.335,7.434-7.434c0-4.1-3.335-7.435-7.434-7.435c-4.1,0-7.435,3.335-7.435,7.435   C53.103,56.8,56.438,60.135,60.537,60.135z M63.548,57.221c-0.732,0.489-1.59,0.805-2.514,0.889v-3.414   c0.858-0.225,1.494-0.997,1.494-1.926c0-0.928-0.636-1.7-1.494-1.925v-3.553c0.924,0.084,1.781,0.399,2.514,0.889V57.221z    M60.034,50.844c-0.86,0.222-1.499,0.996-1.499,1.926c0,0.931,0.639,1.705,1.499,1.927v3.413c-0.924-0.085-1.782-0.401-2.515-0.893   v-9.032c0.732-0.491,1.591-0.807,2.515-0.893V50.844z M65.971,52.701c0,1.407-0.542,2.687-1.423,3.653v-7.307   C65.429,50.014,65.971,51.294,65.971,52.701z M56.52,49.054v7.293c-0.877-0.966-1.417-2.242-1.417-3.646S55.643,50.02,56.52,49.054   z"/><path d="M39.453,60.135c4.099,0,7.434-3.335,7.434-7.434c0-4.1-3.334-7.435-7.434-7.435s-7.434,3.335-7.434,7.435   C32.019,56.8,35.354,60.135,39.453,60.135z M42.467,57.219c-0.732,0.49-1.59,0.806-2.514,0.891v-3.484   c0.858-0.224,1.494-0.997,1.494-1.924c0-0.929-0.636-1.701-1.494-1.926v-3.483c0.924,0.085,1.781,0.4,2.514,0.891V57.219z    M38.953,50.774c-0.861,0.222-1.5,0.996-1.5,1.927c0,0.929,0.639,1.704,1.5,1.926v3.482c-0.924-0.085-1.782-0.4-2.514-0.891v-9.036   c0.732-0.49,1.59-0.806,2.514-0.891V50.774z M44.887,52.701c0,1.405-0.541,2.684-1.42,3.649v-7.3   C44.346,50.017,44.887,51.295,44.887,52.701z M35.439,49.051v7.3c-0.879-0.966-1.42-2.244-1.42-3.649   C34.019,51.295,34.56,50.017,35.439,49.051z"/><path d="M45.888,67.991l4.106-3.877l4.107,3.877c1.001,0.895,2.332-0.548,1.373-1.455l-4.794-4.524   c-0.385-0.363-0.987-0.363-1.373,0l-4.793,4.524C43.581,67.42,44.952,68.87,45.888,67.991z"/><circle cx="50.005" cy="14.896" r="1.372"/><path d="M82.029,48.936l-2.036-0.976c0.104-0.963,0.214-2.428,0.214-3.853c0-14.219-10.086-26.654-23.978-29.566   c-0.948-0.204-1.773-0.828-2.202-1.661c-0.769-1.532-2.307-2.485-4.017-2.491c-0.002,0-0.003-0.001-0.005-0.001s-0.003,0-0.005,0   c-0.002,0-0.004,0-0.005,0c-0.002,0-0.003,0.001-0.005,0.001c-1.711,0.006-3.25,0.958-4.012,2.48   c-0.434,0.843-1.259,1.467-2.203,1.67c-13.896,2.913-23.982,15.348-23.982,29.567c0,1.426,0.109,2.891,0.213,3.853l-2.035,0.976   c-0.399,0.191-0.625,0.621-0.556,1.058l1.961,12.422c0.063,0.4,0.362,0.724,0.757,0.816l2.047,0.485   c0.386,1.423,0.865,2.907,1.205,3.923c-0.362,0.15-0.617,0.506-0.617,0.923v9.587c0,0.553,0.448,1,1,1h2.754c0.552,0,1-0.447,1-1   V76.47h4.596c4.665,6.593,10.872,10.501,17.875,10.501s13.21-3.908,17.875-10.501h4.606v1.681c0,0.553,0.447,1,1,1h2.754   c0.553,0,1-0.447,1-1v-9.587c0-0.417-0.255-0.772-0.617-0.923c0.341-1.016,0.818-2.5,1.205-3.923l2.047-0.485   c0.395-0.093,0.694-0.416,0.757-0.816l1.962-12.422C82.653,49.557,82.428,49.127,82.029,48.936z M25.523,77.15h-0.754v-7.587h0.754   V77.15z M27.523,74.47v-2.3h1.973c0.417,0.793,0.85,1.562,1.303,2.3H27.523z M25.296,44.107c0-13.619,11.08-24.698,24.699-24.698   c13.619,0,24.699,11.08,24.699,24.698c0,1.172-0.035,2.315-0.087,3.443h-3.953c-1.878-3.786-5.778-6.197-10.118-6.197   c-3.116,0-6.022,1.237-8.189,3.492c-1.245,1.329-3.46,1.325-4.7,0.015c-2.167-2.261-5.076-3.507-8.192-3.507   c-4.282,0-8.182,2.411-10.111,6.197h-3.96C25.331,46.422,25.296,45.279,25.296,44.107z M29.975,49.551   c0.397,0,0.756-0.235,0.916-0.598c1.491-3.401,4.853-5.599,8.563-5.599c2.566,0,4.962,1.026,6.744,2.886   c0.983,1.039,2.368,1.635,3.797,1.635c1.452,0,2.805-0.59,3.801-1.652c1.778-1.85,4.172-2.869,6.739-2.869   c3.821,0,7.1,2.141,8.557,5.586c0.156,0.37,0.52,0.611,0.921,0.611h4.477c-0.703,9.555-3.232,17.432-6.788,23.307H55.788v-2.054   c0-0.553-0.447-1-1-1h-9.586c-0.552,0-1,0.447-1,1v2.054H32.288C29.88,68.88,26.4,61.782,25.5,49.551H29.975z M53.788,71.804v3.032   h-7.586v-3.032H53.788z M49.995,84.971c-6.147,0-12.398-3.925-17.075-11.113h11.282v1.979c0,0.553,0.448,1,1,1h9.586   c0.553,0,1-0.447,1-1v-1.979h11.281C62.393,81.046,56.142,84.971,49.995,84.971z M69.19,74.47c0.452-0.738,0.886-1.507,1.303-2.3   h1.983v2.3H69.19z M75.23,77.15h-0.754v-7.587h0.754V77.15z M78.752,61.441l-1.979,0.469c-0.362,0.085-0.646,0.365-0.738,0.726   c-0.457,1.793-1.15,3.885-1.508,4.928h-1.051c-0.553,0-1,0.447-1,1v1.606h-0.99c3.295-7.126,5.207-16.093,5.207-26.063   c0-14.722-11.977-26.698-26.699-26.698c-14.722,0-26.699,11.977-26.699,26.698c0,9.97,1.912,18.937,5.207,26.063h-0.979v-1.606   c0-0.553-0.448-1-1-1h-1.052c-0.356-1.044-1.049-3.135-1.507-4.928c-0.092-0.36-0.376-0.641-0.738-0.726l-1.978-0.469   l-1.741-11.024l2.013-0.965c0.396-0.19,0.623-0.617,0.557-1.052c-0.11-0.725-0.284-2.531-0.284-4.293   c0-13.278,9.417-24.89,22.397-27.611c1.551-0.333,2.85-1.321,3.571-2.72c0.428-0.854,1.286-1.384,2.239-1.386   c0.953,0.002,1.811,0.532,2.244,1.396c0.715,1.389,2.015,2.377,3.57,2.711c12.975,2.72,22.393,14.332,22.393,27.61   c0,1.761-0.175,3.568-0.284,4.293c-0.066,0.435,0.159,0.862,0.556,1.052l2.015,0.965L78.752,61.441z"/></g><text x="0" y="115" fill="#000000" font-size="5px" font-weight="bold" font-family="'Helvetica Neue', Helvetica, Arial-Unicode, Arial, Sans-serif">Created by habione 404</text><text x="0" y="120" fill="#000000" font-size="5px" font-weight="bold" font-family="'Helvetica Neue', Helvetica, Arial-Unicode, Arial, Sans-serif">from the Noun Project</text></svg>